<?xml version="1.0" encoding="utf-8"?>
<!-- Generator: Adobe Illustrator 21.1.0, SVG Export Plug-In . SVG Version: 6.00 Build 0)  -->
<svg version="1.1" id="Capa_1" xmlns="http://www.w3.org/2000/svg" xmlns:xlink="http://www.w3.org/1999/xlink" x="0px" y="0px"
	 viewBox="0 0 396.8 314.8" style="enable-background:new 0 0 396.8 314.8;" xml:space="preserve">
<style type="text/css">
	.st0{fill:#3F3F3F;}
	.st1{fill:#B0BEC5;}
	.st2{fill:#4CC8EF;}
</style>
<g id="api-code-window">
	<g>
		<g id="_x34_">
			<path class="st0" d="M320.8,270.9c-0.8,0-1.4-0.1-2.1-0.3c-1.4,6.9-6.9,12.1-13.5,12.2H43c-7.6,0-13.8-7.1-13.8-15.7V67.5h289.9
				v9.9c0.6-0.1,1.2-0.1,1.8-0.1h14.7V45.3c0-19.1-13.6-34.6-30.4-34.6H43c-16.8,0-30.4,15.5-30.4,34.6v221.8
				c0,19.1,13.6,34.6,30.4,34.6h262.2c15.6,0,28.3-13.6,30-30.8H320.8z M302.1,33c3.8,0,6.9,3.5,6.9,7.9s-3.1,7.9-6.9,7.9
				c-3.8,0-6.9-3.5-6.9-7.9S298.2,33,302.1,33z M247.9,33.4h34c3.6,0,6.5,3.4,6.5,7.4s-2.9,7.4-6.5,7.4h-34c-3.6,0-6.5-3.4-6.5-7.4
				S244.3,33.4,247.9,33.4z"/>
			<g>
				<path class="st1" d="M335.6,149.1c-2.4-0.7-4.8-1-7.4-1c-1.6,0-3.1,0.2-4.7,0.4c-5.7,1-10.8,3.7-14.7,7.6c-5,5-8,11.8-8,19.4
					c0,7.6,3,14.4,8,19.4c3.6,3.6,8.1,6.1,13.1,7.3c2,0.5,4.1,0.7,6.3,0.7c2.3,0,4.6-0.3,6.7-0.9c4.9-1.2,9.2-3.7,12.7-7.2
					c5-5,8-11.8,8-19.4c0-7.6-3.1-14.4-8-19.4C344.3,152.8,340.1,150.4,335.6,149.1z M335.6,182.5c-1.9,2-4.5,3.2-7.4,3.2
					c-1.7,0-3.3-0.5-4.7-1.2c-3.3-1.7-5.6-5.1-5.6-9c0-4,2.3-7.3,5.6-9.1c1.4-0.7,3-1.2,4.7-1.2c2.9,0,5.5,1.2,7.4,3.2
					c1.8,1.8,2.8,4.3,2.8,7C338.4,178.2,337.3,180.7,335.6,182.5z"/>
				<path class="st2" d="M385.2,167.3l-12.4-1.5c-1.2-5.6-3.4-10.9-6.5-15.5l7.7-9.8c0.6-0.7,0.5-1.8-0.1-2.4l-8.8-8.8
					c-0.6-0.6-1.7-0.7-2.4-0.1l-9.8,7.7c-4.7-3-9.9-5.3-15.5-6.4l-1.5-12.4c0-0.4-0.3-0.8-0.6-1.1c-0.3-0.3-0.7-0.5-1.2-0.5h-10.9
					h-1.5c-0.9,0-1.7,0.7-1.8,1.6l-1.5,12.4c-5.6,1.2-10.9,3.4-15.5,6.4l-9.8-7.7c-0.7-0.6-1.8-0.5-2.4,0.1l-8.8,8.8
					c-0.6,0.6-0.7,1.7-0.1,2.4l7.7,9.8c-3,4.7-5.3,9.9-6.4,15.5l-12.4,1.5c-0.9,0.1-1.6,0.9-1.6,1.8v12.4c0,0.9,0.7,1.7,1.6,1.8
					l12.4,1.5c1.2,5.6,3.4,10.9,6.4,15.6l-5,6.4l-2.7,3.4c-0.6,0.7-0.5,1.8,0.1,2.4l6.3,6.3l0.1,0.1l2.4,2.4
					c0.6,0.6,1.7,0.7,2.4,0.1l3.2-2.5l0.1-0.1l6.4-5.1c3.2,2.1,6.8,3.8,10.5,5.1c0.1,0,0.3,0.1,0.4,0.2c1.5,0.5,3,0.9,4.6,1.2
					l1.5,12.4c0.1,0.9,0.9,1.6,1.8,1.6H334c0.9,0,1.7-0.7,1.8-1.6l1.5-12.4c1.6-0.3,3.1-0.8,4.6-1.2c3.9-1.3,7.6-3,10.9-5.2l6.6,5.2
					l3.2,2.5c0.7,0.6,1.8,0.5,2.4-0.1l2.4-2.4l6.4-6.4c0.6-0.6,0.7-1.7,0.1-2.4l-7.7-9.8c3.1-4.7,5.3-9.9,6.5-15.6l12.4-1.5
					c0.9-0.1,1.6-0.9,1.6-1.8v-12.4C386.8,168.2,386.1,167.4,385.2,167.3z M332.1,208c-1.4,0.2-2.7,0.3-4.1,0.3
					c-4.1,0-8-0.8-11.6-2.2c-12.5-4.7-21.4-16.7-21.4-30.8c0-16.6,12.3-30.4,28.3-32.6c1.5-0.2,3.1-0.4,4.7-0.4c2.5,0,5,0.3,7.4,0.9
					c14.7,3.4,25.6,16.5,25.6,32.1C361,192.1,348.4,205.9,332.1,208z"/>
			</g>
			<g>
				<path class="st0" d="M86.7,131.8l-28.7,88h26l4.5-16.5h28.5l4.3,16.5h25.8l-28.8-88C118.4,131.8,86.7,131.8,86.7,131.8z
					 M93.5,183.9c3.6-13.7,6-23,7.1-27.5c1.1-4.7,1.7-8.1,2.1-10.1c0.4,2.2,1.3,5.8,2.4,10.9c1.3,5.1,2.2,9.2,3.2,12.4l3.7,14.4
					H93.5z"/>
				<path class="st0" d="M183.2,131.3h-25.6v88.8h19.9v-29.4h5.7c9,0,15.8-2.7,20.7-8.2c4.9-5.3,7.3-13.1,7.3-23
					c0-9.1-2.4-15.9-7-20.9C199.5,133.7,192.6,131.3,183.2,131.3z M188.3,168.1c-1.7,2.1-4.1,3-7.1,3h-3.6v-20.3h5.2
					c5.5,0,8.2,3,8.2,8.9C191,163.1,190,166,188.3,168.1z"/>
				<rect x="223.6" y="131.2" class="st0" width="24.1" height="88.7"/>
			</g>
		</g>
	</g>
</g>
<g id="Layer_1">
</g>
<rect x="318.9" y="66.4" class="st0" width="16.8" height="44.9"/>
<rect x="318.7" y="238" class="st0" width="16.6" height="33.1"/>
</svg>
